<svg width="100" height="100" viewBox="0 0 100 100" fill="none" xmlns="http://www.w3.org/2000/svg">
<path d="M0 0.000488281H100V100H0V0.000488281Z" fill="#E9E009" fill-opacity="0.93"/>
<path d="M34.8466 29.2727H43.358V57.6705C43.358 60.2955 42.768 62.5758 41.5881 64.5114C40.4214 66.447 38.7973 67.9384 36.7159 68.9858C34.6345 70.0331 32.215 70.5568 29.4574 70.5568C27.0047 70.5568 24.7775 70.1259 22.7756 69.2642C20.7869 68.3892 19.2093 67.0634 18.0426 65.2869C16.8759 63.4972 16.2992 61.25 16.3125 58.5455H24.8835C24.91 59.6193 25.1288 60.5407 25.5398 61.3097C25.964 62.0653 26.5407 62.6487 27.2699 63.0597C28.0123 63.4574 28.8873 63.6562 29.8949 63.6562C30.9555 63.6562 31.8504 63.4309 32.5795 62.9801C33.322 62.5161 33.8854 61.84 34.2699 60.9517C34.6544 60.0634 34.8466 58.9697 34.8466 57.6705V29.2727ZM72.571 40.9858C72.4119 39.3816 71.7292 38.1354 70.5227 37.2472C69.3163 36.3589 67.679 35.9148 65.6108 35.9148C64.2055 35.9148 63.0189 36.1136 62.0511 36.5114C61.0833 36.8958 60.3409 37.4328 59.8239 38.1222C59.3201 38.8116 59.0682 39.5938 59.0682 40.4688C59.0417 41.1979 59.1941 41.8343 59.5256 42.3778C59.8703 42.9214 60.3409 43.392 60.9375 43.7898C61.5341 44.1742 62.2235 44.5123 63.0057 44.804C63.7879 45.0824 64.6231 45.321 65.5114 45.5199L69.1705 46.3949C70.947 46.7926 72.5777 47.3229 74.0625 47.9858C75.5473 48.6487 76.8333 49.464 77.9205 50.4318C79.0076 51.3996 79.8494 52.5398 80.446 53.8523C81.0559 55.1648 81.3674 56.6695 81.3807 58.3665C81.3674 60.8589 80.7311 63.0199 79.4716 64.8494C78.2254 66.6657 76.4223 68.0777 74.0625 69.0852C71.7159 70.0795 68.8854 70.5767 65.571 70.5767C62.2831 70.5767 59.4195 70.0729 56.9801 69.0653C54.554 68.0578 52.6581 66.5663 51.2926 64.5909C49.9403 62.6023 49.2311 60.143 49.1648 57.2131H57.4972C57.59 58.5786 57.9811 59.7187 58.6705 60.6335C59.3731 61.535 60.3078 62.2178 61.4744 62.6818C62.6544 63.1326 63.9867 63.358 65.4716 63.358C66.9299 63.358 68.196 63.1458 69.2699 62.7216C70.357 62.2973 71.1989 61.7074 71.7955 60.9517C72.392 60.196 72.6903 59.3277 72.6903 58.3466C72.6903 57.4318 72.4186 56.6629 71.875 56.0398C71.3447 55.4167 70.5625 54.8864 69.5284 54.4489C68.5076 54.0114 67.2547 53.6136 65.7699 53.2557L61.3352 52.142C57.9015 51.3068 55.1903 50.0009 53.2017 48.2244C51.2131 46.4479 50.2254 44.0549 50.2386 41.0455C50.2254 38.5795 50.8816 36.4252 52.2074 34.5824C53.5464 32.7396 55.3826 31.3011 57.7159 30.267C60.0492 29.233 62.7008 28.7159 65.6705 28.7159C68.6932 28.7159 71.3314 29.233 73.5852 30.267C75.8523 31.3011 77.6155 32.7396 78.875 34.5824C80.1345 36.4252 80.7841 38.5597 80.8239 40.9858H72.571Z" fill="white"/>
</svg>
