<svg width="106" height="66" viewBox="0 0 106 66" fill="none" xmlns="http://www.w3.org/2000/svg">
<path d="M8.0505 3.00049H97.9495C99.289 3.00049 100.574 3.53259 101.521 4.47975C102.468 5.4269 103 6.71152 103 8.05099V57.5459C103 58.8854 102.468 60.17 101.521 61.1172C100.574 62.0643 99.289 62.5964 97.9495 62.5964H8.0505C6.71103 62.5964 5.42641 62.0643 4.47926 61.1172C3.53211 60.17 3 58.8854 3 57.5459V8.05099C3 6.71152 3.53211 5.4269 4.47926 4.47975C5.42641 3.53259 6.71103 3.00049 8.0505 3.00049Z" stroke="black" stroke-width="5.05051"/>
<path d="M15.6262 49.9702V15.6268H25.7272L35.8282 28.253L45.9293 15.6268H56.0303V49.9702H45.9293V30.2732L35.8282 42.8995L25.7272 30.2732V49.9702H15.6262ZM78.7575 49.9702L63.606 33.3035H73.707V15.6268H83.808V33.3035H93.9091L78.7575 49.9702Z" fill="black"/>
</svg>
